<svg width="300" height="92" viewBox="0 0 300 92" fill="none" xmlns="http://www.w3.org/2000/svg">
<path d="M34.5443 48.2061H53.2617C58.9954 48.2061 63.6629 52.877 63.6629 58.6149C63.6629 64.3527 58.9954 69.0237 53.2617 69.0237H34.5443V48.2061Z" fill="white"/>
<path d="M26.7493 38.8167H34.5443V48.2059H26.7493C24.1668 48.2059 22.0581 46.0957 22.0581 43.5113C22.0581 40.9269 24.1668 38.8167 26.7493 38.8167Z" fill="white"/>
<path d="M34.5443 22.1721H47.0305C51.6269 22.1721 55.3467 25.8946 55.3467 30.4944C55.3467 35.0942 51.6269 38.8167 47.0305 38.8167H34.5443V22.1721Z" fill="white"/>
<path d="M165.945 59.2788V37.821H159.501V34.8098L166.396 33.1263V26.1555H171.3V33.6005H182.365V37.821H171.3V62.7642H181.891V67.1269H173.977C167.604 67.1269 165.945 64.6373 165.945 59.2788Z" fill="white"/>
<path d="M112.044 45.598C116.546 44.7919 120.431 41.5673 120.431 35.1418C120.431 28.7163 117.138 24.0691 107.613 24.0691H85.6974V67.1269H107.613C117.138 67.1269 120.431 62.2426 120.431 56.0542C120.431 49.8659 116.546 46.4042 112.044 45.598ZM91.2652 28.5503H106.476C112.707 28.5503 114.603 30.8977 114.603 35.9242C114.603 40.9508 112.044 43.4404 105.765 43.4404H91.2889V28.5503H91.2652ZM106.476 62.6457H91.2652V47.7556H105.742C112.044 47.7556 114.579 50.3875 114.579 55.2718C114.579 60.1561 112.707 62.6457 106.452 62.6457H106.476Z" fill="white"/>
<path d="M212.17 33.482V54.2047L210.796 55.5562L210.725 55.6273C204.968 61.792 198.571 63.7126 195.704 62.0054C195.609 61.958 195.49 61.8869 195.372 61.792C193.808 60.7014 192.884 58.8282 192.884 56.7892V33.4583H187.506V56.7892C187.506 60.5591 189.283 64.0682 192.292 66.1784C192.553 66.3444 192.766 66.5104 192.979 66.6289C194.495 67.5299 196.272 67.9567 198.191 67.9567C202.527 67.9567 207.574 65.7279 212.17 61.6972V67.1031H217.549V33.482H212.17Z" fill="white"/>
<path d="M273.061 34.1696C270.976 33.0552 268.204 32.4387 264.674 32.4387C255.434 32.4387 250.34 36.9911 250.126 44.1042H255.481C255.813 39.7415 258.3 36.6591 264.792 36.6591C271.284 36.6591 273.037 39.2673 273.037 42.7053V43.5825L262.494 46.1433L261.617 46.3566C258.182 47.1628 254.652 48.0164 252.164 51.4306C251.738 52.0234 249.653 55.1294 250.363 59.3025C251.003 63.0487 253.657 65.7279 255.742 66.8897C257.092 67.6485 258.632 68.0041 260.291 68.0041C264.2 68.0041 268.773 65.965 273.061 62.2899V67.1268H277.942V42.7053C277.942 38.9828 276.402 35.9478 273.061 34.1696ZM258.135 62.5982C257.282 62.124 255.576 60.6539 255.197 58.4489C254.794 56.1253 256.121 54.3233 256.121 54.2996C257.495 52.4265 259.438 51.8811 262.755 51.0987L273.037 48.6091V55.3666C267.304 61.9106 261.001 64.1868 258.111 62.5745L258.135 62.5982Z" fill="white"/>
<path d="M150.237 34.1696C148.152 33.0552 145.38 32.4387 141.85 32.4387C132.609 32.4387 127.515 36.9911 127.302 44.1042H132.657C132.988 39.7415 135.476 36.6591 141.968 36.6591C148.46 36.6591 150.213 39.2673 150.213 42.7053V43.5825L139.67 46.1433L138.793 46.3566C135.358 47.1628 131.828 48.0164 129.34 51.4306C128.913 52.0234 126.828 55.1294 127.539 59.3025C128.179 63.0487 130.832 65.7279 132.917 66.8897C134.268 67.6485 135.808 68.0041 137.466 68.0041C141.376 68.0041 145.949 65.965 150.237 62.2899V67.1268H155.118V42.7053C155.118 38.9828 153.578 35.9478 150.237 34.1696ZM135.334 62.5982C134.481 62.124 132.775 60.6539 132.396 58.4489C131.993 56.1253 133.32 54.3233 133.32 54.2996C134.694 52.4265 136.637 51.8811 139.954 51.0987L150.237 48.6091V55.3666C144.503 61.9106 138.201 64.1868 135.31 62.5745L135.334 62.5982Z" fill="white"/>
<path d="M229.134 59.2788V37.821H222.69V34.8098L229.585 33.1263V26.1555H234.489V33.6005H245.554V37.821H234.489V62.7642H245.08V67.1269H237.166C230.793 67.1269 229.134 64.6373 229.134 59.2788Z" fill="white"/>
</svg>
