<?xml version="1.0" standalone="no"?>
<!DOCTYPE svg PUBLIC "-//W3C//DTD SVG 20010904//EN"
 "http://www.w3.org/TR/2001/REC-SVG-20010904/DTD/svg10.dtd">
<svg version="1.0" xmlns="http://www.w3.org/2000/svg"
 width="500.000000pt" height="500.000000pt" viewBox="0 0 500.000000 500.000000"
 preserveAspectRatio="xMidYMid meet">
<metadata>
Created by potrace 1.14, written by Peter Selinger 2001-2017
</metadata>
<g transform="translate(0.000000,500.000000) scale(0.100000,-0.100000)"
fill="#000000" stroke="none">
<path d="M1476 4036 c1 -416 -2 -753 -6 -749 -4 4 -28 54 -54 110 -47 104 -85
186 -162 351 -24 51 -44 95 -44 97 0 3 -27 61 -60 130 -63 130 -77 144 -135
136 -26 -3 -65 -46 -65 -72 0 -16 141 -329 385 -854 21 -44 51 -109 67 -145
17 -36 40 -85 51 -110 21 -45 21 -52 23 -1155 1 -1102 1 -1110 22 -1157 28
-65 71 -125 128 -181 86 -84 291 -169 459 -191 106 -14 157 -17 385 -21 135
-3 326 -8 425 -10 220 -6 415 -6 435 -2 96 22 145 59 178 136 20 47 23 168 8
256 -15 83 -9 106 41 155 60 59 86 109 89 169 1 30 -1 64 -6 76 -7 17 -4 27
10 40 55 49 77 176 46 260 -20 55 -5 77 60 88 127 23 232 85 268 160 26 57 29
121 8 170 -11 23 -121 201 -246 395 -227 354 -251 400 -241 466 2 12 6 47 10
80 4 32 13 77 22 100 8 22 16 48 18 56 2 8 8 36 14 63 16 70 6 248 -19 347
-84 322 -341 745 -611 1007 -281 272 -609 436 -1036 517 -20 4 -62 11 -138 22
-16 2 -97 7 -180 10 l-150 7 1 -757z m264 576 c81 -37 134 -76 211 -153 141
-143 276 -385 365 -656 26 -79 80 -283 86 -323 l3 -25 -85 4 c-156 6 -253 8
-482 10 l-228 1 0 591 0 591 38 -7 c20 -4 62 -18 92 -33z m490 -69 c122 -42
308 -135 413 -206 55 -37 105 -73 112 -80 7 -6 39 -34 71 -62 69 -59 155 -149
216 -225 101 -125 247 -356 306 -482 12 -27 32 -68 43 -93 12 -25 19 -48 16
-52 -4 -3 -48 2 -99 11 -51 9 -109 18 -128 21 -19 3 -46 7 -60 10 -14 3 -50 7
-80 10 -30 3 -64 7 -75 9 -11 2 -54 7 -95 11 -41 4 -84 9 -95 11 -10 2 -64 6
-120 10 -55 3 -103 8 -107 10 -3 2 -9 23 -13 47 -11 65 -52 226 -81 319 -91
289 -242 567 -393 727 -34 35 -61 65 -61 66 0 6 158 -37 230 -62z m85 -1218
c22 -1 56 -3 76 -4 41 -1 43 -5 54 -106 4 -33 8 -71 11 -85 22 -136 22 -662 0
-790 -3 -14 -7 -50 -11 -81 -6 -62 -13 -100 -17 -104 -2 -2 -57 -5 -123 -8
l-121 -4 1 41 c2 116 -40 285 -101 402 -60 116 -139 210 -246 291 -78 60 -88
66 -165 102 l-63 30 0 159 c0 87 3 161 6 165 5 5 615 -1 699 -8z m420 -30 c39
-3 86 -8 105 -10 19 -2 60 -7 90 -10 30 -3 66 -8 80 -10 32 -5 107 -16 140
-20 21 -3 160 -26 225 -38 70 -13 92 -20 92 -30 1 -7 5 -39 11 -72 14 -84 7
-191 -18 -266 -12 -35 -27 -95 -34 -134 l-12 -70 -252 -5 -252 -5 -27 -28
c-40 -39 -40 -105 0 -144 l27 -28 251 -3 251 -3 -6 -67 c-3 -37 -6 -70 -6 -74
0 -6 -22 -12 -85 -23 -16 -3 -40 -7 -51 -9 -52 -11 -281 -42 -369 -51 -33 -3
-69 -8 -80 -10 -11 -2 -60 -6 -110 -10 -49 -4 -100 -8 -113 -10 -23 -4 -23 -2
-16 52 4 31 8 70 10 87 1 17 6 65 10 106 15 155 8 658 -11 759 -1 9 -6 44 -10
79 l-7 64 48 -6 c27 -3 81 -8 119 -11z m965 -1291 c58 -91 130 -205 162 -255
61 -97 64 -114 20 -161 -26 -29 -86 -52 -162 -63 -78 -12 -126 -48 -154 -117
-16 -38 -15 -71 5 -160 l13 -57 -36 -53 c-25 -38 -46 -57 -69 -65 -19 -6 -101
-34 -184 -63 -209 -72 -428 -129 -612 -160 -35 -6 -74 -12 -88 -14 -24 -5
-150 -19 -270 -31 -33 -4 -58 -4 -55 -2 3 3 45 21 94 42 194 80 381 192 541
325 50 41 228 222 266 270 147 186 268 425 319 628 18 76 26 92 43 95 59 12
59 12 167 -159z m-350 62 c-30 -100 -48 -145 -106 -261 -163 -328 -455 -607
-819 -785 -119 -58 -314 -131 -389 -144 l-39 -7 51 51 c154 155 295 407 392
700 37 111 83 287 95 360 4 19 9 38 13 42 4 3 43 9 87 13 105 9 161 14 210 19
22 3 65 8 95 11 30 4 66 8 80 10 14 2 61 9 106 15 44 6 91 13 104 15 13 3 42
7 65 11 22 3 41 7 43 8 1 2 8 3 16 3 11 0 10 -11 -4 -61z m-952 -61 c3 -9 0
-30 -12 -90 -11 -52 -50 -189 -78 -270 -141 -414 -357 -704 -593 -797 -115
-45 -105 -67 -105 232 l0 260 58 27 c245 115 422 330 492 600 l11 42 62 3
c111 5 162 3 165 -7z m1108 -1092 c-8 -16 -33 -47 -55 -70 -75 -78 -89 -137
-67 -270 19 -107 10 -177 -26 -209 -19 -18 -40 -19 -287 -17 -460 4 -601 10
-656 28 -58 20 -125 56 -175 93 -72 54 -180 176 -167 188 3 3 54 7 114 9 178
6 305 18 503 50 207 34 483 107 695 184 136 49 140 49 121 14z m-1556 -327
c27 -41 80 -106 117 -144 l68 -69 -70 13 c-100 18 -165 40 -242 80 -76 39
-118 73 -163 135 -50 70 -49 71 105 66 l135 -5 50 -76z"/>
</g>
</svg>
